M48
; DRILL file {KiCad 7.0.10+1} date Sun 25 Feb 2024 05:46:35 PM EST
; FORMAT={-:-/ absolute / inch / decimal}
; #@! TF.CreationDate,2024-02-25T17:46:35-05:00
; #@! TF.GenerationSoftware,Kicad,Pcbnew,7.0.10+1
; #@! TF.FileFunction,Plated,1,2,PTH
FMAT,2
INCH
; #@! TA.AperFunction,Plated,PTH,ComponentDrill
T1C0.0315
; #@! TA.AperFunction,Plated,PTH,ComponentDrill
T2C0.0394
; #@! TA.AperFunction,Plated,PTH,ComponentDrill
T3C0.0433
; #@! TA.AperFunction,Plated,PTH,ComponentDrill
T4C0.1063
%
G90
G05
T2
X2.391Y-3.9259
X2.391Y-4.0259
X2.391Y-4.1259
X3.7664Y-3.929
X3.7664Y-4.029
X3.7664Y-4.129
T3
X1.8021Y-4.0958
X1.9005Y-4.0958
X1.9793Y-4.0958
X2.0777Y-4.0958
X3.1902Y-4.1065
X3.2887Y-4.1065
X3.3674Y-4.1065
X3.4658Y-4.1065
T4
X1.49Y-4.39
X2.65Y-1.78
X3.81Y-4.39
T1
X1.6879Y-4.3596G85X1.6879Y-4.399
G05
X2.1919Y-4.399G85X2.1919Y-4.3596
G05
X3.0761Y-4.3703G85X3.0761Y-4.4097
G05
X3.58Y-4.4097G85X3.58Y-4.3703
G05
M30
