%TF.GenerationSoftware,KiCad,Pcbnew,7.0.10+1*%
%TF.CreationDate,2024-02-25T17:46:58-05:00*%
%TF.ProjectId,DeskHop_JLCPCB,4465736b-486f-4705-9f4a-4c435043422e,rev?*%
%TF.SameCoordinates,Original*%
%TF.FileFunction,Drillmap*%
%TF.FilePolarity,Positive*%
%FSLAX45Y45*%
G04 Gerber Fmt 4.5, Leading zero omitted, Abs format (unit mm)*
G04 Created by KiCad (PCBNEW 7.0.10+1) date 2024-02-25 17:46:58*
%MOMM*%
%LPD*%
G01*
G04 APERTURE LIST*
%ADD10C,0.050000*%
%ADD11C,0.200000*%
%ADD12C,0.150000*%
%ADD13C,0.180000*%
G04 APERTURE END LIST*
D10*
X3377340Y-4108512D02*
X10068957Y-4108512D01*
X10068957Y-11556637D01*
X3377340Y-11556637D01*
X3377340Y-4108512D01*
D11*
D12*
X4571052Y-4709825D02*
X4721052Y-4859825D01*
X4721052Y-4709825D02*
X4571052Y-4859825D01*
X5056052Y-4709825D02*
X5206052Y-4859825D01*
X5206052Y-4709825D02*
X5056052Y-4859825D01*
X8216900Y-4711400D02*
X8366900Y-4861400D01*
X8366900Y-4711400D02*
X8216900Y-4861400D01*
X8701900Y-4711400D02*
X8851900Y-4861400D01*
X8851900Y-4711400D02*
X8701900Y-4861400D01*
D13*
X4706052Y-4481825D02*
G75*
G03*
X4526052Y-4481825I-90000J0D01*
G01*
X4526052Y-4481825D02*
G75*
G03*
X4706052Y-4481825I90000J0D01*
G01*
X5251052Y-4481825D02*
G75*
G03*
X5071052Y-4481825I-90000J0D01*
G01*
X5071052Y-4481825D02*
G75*
G03*
X5251052Y-4481825I90000J0D01*
G01*
X8351900Y-4483400D02*
G75*
G03*
X8171900Y-4483400I-90000J0D01*
G01*
X8171900Y-4483400D02*
G75*
G03*
X8351900Y-4483400I90000J0D01*
G01*
X8896900Y-4483400D02*
G75*
G03*
X8716900Y-4483400I-90000J0D01*
G01*
X8716900Y-4483400D02*
G75*
G03*
X8896900Y-4483400I90000J0D01*
G01*
D11*
X3635617Y-11870621D02*
X3635617Y-11670621D01*
X3635617Y-11670621D02*
X3683236Y-11670621D01*
X3683236Y-11670621D02*
X3711808Y-11680145D01*
X3711808Y-11680145D02*
X3730855Y-11699193D01*
X3730855Y-11699193D02*
X3740379Y-11718240D01*
X3740379Y-11718240D02*
X3749903Y-11756335D01*
X3749903Y-11756335D02*
X3749903Y-11784907D01*
X3749903Y-11784907D02*
X3740379Y-11823002D01*
X3740379Y-11823002D02*
X3730855Y-11842050D01*
X3730855Y-11842050D02*
X3711808Y-11861097D01*
X3711808Y-11861097D02*
X3683236Y-11870621D01*
X3683236Y-11870621D02*
X3635617Y-11870621D01*
X3835617Y-11870621D02*
X3835617Y-11737288D01*
X3835617Y-11775383D02*
X3845141Y-11756335D01*
X3845141Y-11756335D02*
X3854665Y-11746812D01*
X3854665Y-11746812D02*
X3873712Y-11737288D01*
X3873712Y-11737288D02*
X3892760Y-11737288D01*
X3959427Y-11870621D02*
X3959427Y-11737288D01*
X3959427Y-11670621D02*
X3949903Y-11680145D01*
X3949903Y-11680145D02*
X3959427Y-11689669D01*
X3959427Y-11689669D02*
X3968950Y-11680145D01*
X3968950Y-11680145D02*
X3959427Y-11670621D01*
X3959427Y-11670621D02*
X3959427Y-11689669D01*
X4083236Y-11870621D02*
X4064188Y-11861097D01*
X4064188Y-11861097D02*
X4054665Y-11842050D01*
X4054665Y-11842050D02*
X4054665Y-11670621D01*
X4187998Y-11870621D02*
X4168950Y-11861097D01*
X4168950Y-11861097D02*
X4159427Y-11842050D01*
X4159427Y-11842050D02*
X4159427Y-11670621D01*
X4416570Y-11870621D02*
X4416570Y-11670621D01*
X4416570Y-11670621D02*
X4483236Y-11813478D01*
X4483236Y-11813478D02*
X4549903Y-11670621D01*
X4549903Y-11670621D02*
X4549903Y-11870621D01*
X4730855Y-11870621D02*
X4730855Y-11765859D01*
X4730855Y-11765859D02*
X4721331Y-11746812D01*
X4721331Y-11746812D02*
X4702284Y-11737288D01*
X4702284Y-11737288D02*
X4664189Y-11737288D01*
X4664189Y-11737288D02*
X4645141Y-11746812D01*
X4730855Y-11861097D02*
X4711808Y-11870621D01*
X4711808Y-11870621D02*
X4664189Y-11870621D01*
X4664189Y-11870621D02*
X4645141Y-11861097D01*
X4645141Y-11861097D02*
X4635617Y-11842050D01*
X4635617Y-11842050D02*
X4635617Y-11823002D01*
X4635617Y-11823002D02*
X4645141Y-11803955D01*
X4645141Y-11803955D02*
X4664189Y-11794431D01*
X4664189Y-11794431D02*
X4711808Y-11794431D01*
X4711808Y-11794431D02*
X4730855Y-11784907D01*
X4826093Y-11737288D02*
X4826093Y-11937288D01*
X4826093Y-11746812D02*
X4845141Y-11737288D01*
X4845141Y-11737288D02*
X4883236Y-11737288D01*
X4883236Y-11737288D02*
X4902284Y-11746812D01*
X4902284Y-11746812D02*
X4911808Y-11756335D01*
X4911808Y-11756335D02*
X4921331Y-11775383D01*
X4921331Y-11775383D02*
X4921331Y-11832526D01*
X4921331Y-11832526D02*
X4911808Y-11851574D01*
X4911808Y-11851574D02*
X4902284Y-11861097D01*
X4902284Y-11861097D02*
X4883236Y-11870621D01*
X4883236Y-11870621D02*
X4845141Y-11870621D01*
X4845141Y-11870621D02*
X4826093Y-11861097D01*
X5007046Y-11851574D02*
X5016570Y-11861097D01*
X5016570Y-11861097D02*
X5007046Y-11870621D01*
X5007046Y-11870621D02*
X4997522Y-11861097D01*
X4997522Y-11861097D02*
X5007046Y-11851574D01*
X5007046Y-11851574D02*
X5007046Y-11870621D01*
X5007046Y-11746812D02*
X5016570Y-11756335D01*
X5016570Y-11756335D02*
X5007046Y-11765859D01*
X5007046Y-11765859D02*
X4997522Y-11756335D01*
X4997522Y-11756335D02*
X5007046Y-11746812D01*
X5007046Y-11746812D02*
X5007046Y-11765859D01*
D12*
X3224840Y-12124137D02*
X3374840Y-12274137D01*
X3374840Y-12124137D02*
X3224840Y-12274137D01*
D11*
X3740379Y-12290621D02*
X3626093Y-12290621D01*
X3683236Y-12290621D02*
X3683236Y-12090621D01*
X3683236Y-12090621D02*
X3664188Y-12119193D01*
X3664188Y-12119193D02*
X3645141Y-12138240D01*
X3645141Y-12138240D02*
X3626093Y-12147764D01*
X3826093Y-12271574D02*
X3835617Y-12281097D01*
X3835617Y-12281097D02*
X3826093Y-12290621D01*
X3826093Y-12290621D02*
X3816569Y-12281097D01*
X3816569Y-12281097D02*
X3826093Y-12271574D01*
X3826093Y-12271574D02*
X3826093Y-12290621D01*
X4016569Y-12090621D02*
X3921331Y-12090621D01*
X3921331Y-12090621D02*
X3911808Y-12185859D01*
X3911808Y-12185859D02*
X3921331Y-12176335D01*
X3921331Y-12176335D02*
X3940379Y-12166812D01*
X3940379Y-12166812D02*
X3987998Y-12166812D01*
X3987998Y-12166812D02*
X4007046Y-12176335D01*
X4007046Y-12176335D02*
X4016569Y-12185859D01*
X4016569Y-12185859D02*
X4026093Y-12204907D01*
X4026093Y-12204907D02*
X4026093Y-12252526D01*
X4026093Y-12252526D02*
X4016569Y-12271574D01*
X4016569Y-12271574D02*
X4007046Y-12281097D01*
X4007046Y-12281097D02*
X3987998Y-12290621D01*
X3987998Y-12290621D02*
X3940379Y-12290621D01*
X3940379Y-12290621D02*
X3921331Y-12281097D01*
X3921331Y-12281097D02*
X3911808Y-12271574D01*
X4149903Y-12090621D02*
X4168950Y-12090621D01*
X4168950Y-12090621D02*
X4187998Y-12100145D01*
X4187998Y-12100145D02*
X4197522Y-12109669D01*
X4197522Y-12109669D02*
X4207046Y-12128716D01*
X4207046Y-12128716D02*
X4216570Y-12166812D01*
X4216570Y-12166812D02*
X4216570Y-12214431D01*
X4216570Y-12214431D02*
X4207046Y-12252526D01*
X4207046Y-12252526D02*
X4197522Y-12271574D01*
X4197522Y-12271574D02*
X4187998Y-12281097D01*
X4187998Y-12281097D02*
X4168950Y-12290621D01*
X4168950Y-12290621D02*
X4149903Y-12290621D01*
X4149903Y-12290621D02*
X4130855Y-12281097D01*
X4130855Y-12281097D02*
X4121331Y-12271574D01*
X4121331Y-12271574D02*
X4111808Y-12252526D01*
X4111808Y-12252526D02*
X4102284Y-12214431D01*
X4102284Y-12214431D02*
X4102284Y-12166812D01*
X4102284Y-12166812D02*
X4111808Y-12128716D01*
X4111808Y-12128716D02*
X4121331Y-12109669D01*
X4121331Y-12109669D02*
X4130855Y-12100145D01*
X4130855Y-12100145D02*
X4149903Y-12090621D01*
X4340379Y-12090621D02*
X4359427Y-12090621D01*
X4359427Y-12090621D02*
X4378474Y-12100145D01*
X4378474Y-12100145D02*
X4387998Y-12109669D01*
X4387998Y-12109669D02*
X4397522Y-12128716D01*
X4397522Y-12128716D02*
X4407046Y-12166812D01*
X4407046Y-12166812D02*
X4407046Y-12214431D01*
X4407046Y-12214431D02*
X4397522Y-12252526D01*
X4397522Y-12252526D02*
X4387998Y-12271574D01*
X4387998Y-12271574D02*
X4378474Y-12281097D01*
X4378474Y-12281097D02*
X4359427Y-12290621D01*
X4359427Y-12290621D02*
X4340379Y-12290621D01*
X4340379Y-12290621D02*
X4321331Y-12281097D01*
X4321331Y-12281097D02*
X4311808Y-12271574D01*
X4311808Y-12271574D02*
X4302284Y-12252526D01*
X4302284Y-12252526D02*
X4292760Y-12214431D01*
X4292760Y-12214431D02*
X4292760Y-12166812D01*
X4292760Y-12166812D02*
X4302284Y-12128716D01*
X4302284Y-12128716D02*
X4311808Y-12109669D01*
X4311808Y-12109669D02*
X4321331Y-12100145D01*
X4321331Y-12100145D02*
X4340379Y-12090621D01*
X4492760Y-12290621D02*
X4492760Y-12157288D01*
X4492760Y-12176335D02*
X4502284Y-12166812D01*
X4502284Y-12166812D02*
X4521331Y-12157288D01*
X4521331Y-12157288D02*
X4549903Y-12157288D01*
X4549903Y-12157288D02*
X4568951Y-12166812D01*
X4568951Y-12166812D02*
X4578474Y-12185859D01*
X4578474Y-12185859D02*
X4578474Y-12290621D01*
X4578474Y-12185859D02*
X4587998Y-12166812D01*
X4587998Y-12166812D02*
X4607046Y-12157288D01*
X4607046Y-12157288D02*
X4635617Y-12157288D01*
X4635617Y-12157288D02*
X4654665Y-12166812D01*
X4654665Y-12166812D02*
X4664189Y-12185859D01*
X4664189Y-12185859D02*
X4664189Y-12290621D01*
X4759427Y-12290621D02*
X4759427Y-12157288D01*
X4759427Y-12176335D02*
X4768951Y-12166812D01*
X4768951Y-12166812D02*
X4787998Y-12157288D01*
X4787998Y-12157288D02*
X4816570Y-12157288D01*
X4816570Y-12157288D02*
X4835617Y-12166812D01*
X4835617Y-12166812D02*
X4845141Y-12185859D01*
X4845141Y-12185859D02*
X4845141Y-12290621D01*
X4845141Y-12185859D02*
X4854665Y-12166812D01*
X4854665Y-12166812D02*
X4873712Y-12157288D01*
X4873712Y-12157288D02*
X4902284Y-12157288D01*
X4902284Y-12157288D02*
X4921332Y-12166812D01*
X4921332Y-12166812D02*
X4930855Y-12185859D01*
X4930855Y-12185859D02*
X4930855Y-12290621D01*
X5321332Y-12081097D02*
X5149903Y-12338240D01*
X5578474Y-12090621D02*
X5597522Y-12090621D01*
X5597522Y-12090621D02*
X5616570Y-12100145D01*
X5616570Y-12100145D02*
X5626093Y-12109669D01*
X5626093Y-12109669D02*
X5635617Y-12128716D01*
X5635617Y-12128716D02*
X5645141Y-12166812D01*
X5645141Y-12166812D02*
X5645141Y-12214431D01*
X5645141Y-12214431D02*
X5635617Y-12252526D01*
X5635617Y-12252526D02*
X5626093Y-12271574D01*
X5626093Y-12271574D02*
X5616570Y-12281097D01*
X5616570Y-12281097D02*
X5597522Y-12290621D01*
X5597522Y-12290621D02*
X5578474Y-12290621D01*
X5578474Y-12290621D02*
X5559427Y-12281097D01*
X5559427Y-12281097D02*
X5549903Y-12271574D01*
X5549903Y-12271574D02*
X5540379Y-12252526D01*
X5540379Y-12252526D02*
X5530855Y-12214431D01*
X5530855Y-12214431D02*
X5530855Y-12166812D01*
X5530855Y-12166812D02*
X5540379Y-12128716D01*
X5540379Y-12128716D02*
X5549903Y-12109669D01*
X5549903Y-12109669D02*
X5559427Y-12100145D01*
X5559427Y-12100145D02*
X5578474Y-12090621D01*
X5730855Y-12271574D02*
X5740379Y-12281097D01*
X5740379Y-12281097D02*
X5730855Y-12290621D01*
X5730855Y-12290621D02*
X5721332Y-12281097D01*
X5721332Y-12281097D02*
X5730855Y-12271574D01*
X5730855Y-12271574D02*
X5730855Y-12290621D01*
X5864189Y-12090621D02*
X5883236Y-12090621D01*
X5883236Y-12090621D02*
X5902284Y-12100145D01*
X5902284Y-12100145D02*
X5911808Y-12109669D01*
X5911808Y-12109669D02*
X5921332Y-12128716D01*
X5921332Y-12128716D02*
X5930855Y-12166812D01*
X5930855Y-12166812D02*
X5930855Y-12214431D01*
X5930855Y-12214431D02*
X5921332Y-12252526D01*
X5921332Y-12252526D02*
X5911808Y-12271574D01*
X5911808Y-12271574D02*
X5902284Y-12281097D01*
X5902284Y-12281097D02*
X5883236Y-12290621D01*
X5883236Y-12290621D02*
X5864189Y-12290621D01*
X5864189Y-12290621D02*
X5845141Y-12281097D01*
X5845141Y-12281097D02*
X5835617Y-12271574D01*
X5835617Y-12271574D02*
X5826093Y-12252526D01*
X5826093Y-12252526D02*
X5816570Y-12214431D01*
X5816570Y-12214431D02*
X5816570Y-12166812D01*
X5816570Y-12166812D02*
X5826093Y-12128716D01*
X5826093Y-12128716D02*
X5835617Y-12109669D01*
X5835617Y-12109669D02*
X5845141Y-12100145D01*
X5845141Y-12100145D02*
X5864189Y-12090621D01*
X6111808Y-12090621D02*
X6016570Y-12090621D01*
X6016570Y-12090621D02*
X6007046Y-12185859D01*
X6007046Y-12185859D02*
X6016570Y-12176335D01*
X6016570Y-12176335D02*
X6035617Y-12166812D01*
X6035617Y-12166812D02*
X6083236Y-12166812D01*
X6083236Y-12166812D02*
X6102284Y-12176335D01*
X6102284Y-12176335D02*
X6111808Y-12185859D01*
X6111808Y-12185859D02*
X6121332Y-12204907D01*
X6121332Y-12204907D02*
X6121332Y-12252526D01*
X6121332Y-12252526D02*
X6111808Y-12271574D01*
X6111808Y-12271574D02*
X6102284Y-12281097D01*
X6102284Y-12281097D02*
X6083236Y-12290621D01*
X6083236Y-12290621D02*
X6035617Y-12290621D01*
X6035617Y-12290621D02*
X6016570Y-12281097D01*
X6016570Y-12281097D02*
X6007046Y-12271574D01*
X6216570Y-12290621D02*
X6254665Y-12290621D01*
X6254665Y-12290621D02*
X6273713Y-12281097D01*
X6273713Y-12281097D02*
X6283236Y-12271574D01*
X6283236Y-12271574D02*
X6302284Y-12243002D01*
X6302284Y-12243002D02*
X6311808Y-12204907D01*
X6311808Y-12204907D02*
X6311808Y-12128716D01*
X6311808Y-12128716D02*
X6302284Y-12109669D01*
X6302284Y-12109669D02*
X6292760Y-12100145D01*
X6292760Y-12100145D02*
X6273713Y-12090621D01*
X6273713Y-12090621D02*
X6235617Y-12090621D01*
X6235617Y-12090621D02*
X6216570Y-12100145D01*
X6216570Y-12100145D02*
X6207046Y-12109669D01*
X6207046Y-12109669D02*
X6197522Y-12128716D01*
X6197522Y-12128716D02*
X6197522Y-12176335D01*
X6197522Y-12176335D02*
X6207046Y-12195383D01*
X6207046Y-12195383D02*
X6216570Y-12204907D01*
X6216570Y-12204907D02*
X6235617Y-12214431D01*
X6235617Y-12214431D02*
X6273713Y-12214431D01*
X6273713Y-12214431D02*
X6292760Y-12204907D01*
X6292760Y-12204907D02*
X6302284Y-12195383D01*
X6302284Y-12195383D02*
X6311808Y-12176335D01*
X6502284Y-12290621D02*
X6387998Y-12290621D01*
X6445141Y-12290621D02*
X6445141Y-12090621D01*
X6445141Y-12090621D02*
X6426093Y-12119193D01*
X6426093Y-12119193D02*
X6407046Y-12138240D01*
X6407046Y-12138240D02*
X6387998Y-12147764D01*
X6578474Y-12090621D02*
X6578474Y-12128716D01*
X6654665Y-12090621D02*
X6654665Y-12128716D01*
X6949903Y-12366812D02*
X6940379Y-12357288D01*
X6940379Y-12357288D02*
X6921332Y-12328716D01*
X6921332Y-12328716D02*
X6911808Y-12309669D01*
X6911808Y-12309669D02*
X6902284Y-12281097D01*
X6902284Y-12281097D02*
X6892760Y-12233478D01*
X6892760Y-12233478D02*
X6892760Y-12195383D01*
X6892760Y-12195383D02*
X6902284Y-12147764D01*
X6902284Y-12147764D02*
X6911808Y-12119193D01*
X6911808Y-12119193D02*
X6921332Y-12100145D01*
X6921332Y-12100145D02*
X6940379Y-12071574D01*
X6940379Y-12071574D02*
X6949903Y-12062050D01*
X7111808Y-12157288D02*
X7111808Y-12290621D01*
X7064189Y-12081097D02*
X7016570Y-12223955D01*
X7016570Y-12223955D02*
X7140379Y-12223955D01*
X7368951Y-12290621D02*
X7368951Y-12090621D01*
X7454665Y-12290621D02*
X7454665Y-12185859D01*
X7454665Y-12185859D02*
X7445141Y-12166812D01*
X7445141Y-12166812D02*
X7426094Y-12157288D01*
X7426094Y-12157288D02*
X7397522Y-12157288D01*
X7397522Y-12157288D02*
X7378475Y-12166812D01*
X7378475Y-12166812D02*
X7368951Y-12176335D01*
X7578475Y-12290621D02*
X7559427Y-12281097D01*
X7559427Y-12281097D02*
X7549903Y-12271574D01*
X7549903Y-12271574D02*
X7540379Y-12252526D01*
X7540379Y-12252526D02*
X7540379Y-12195383D01*
X7540379Y-12195383D02*
X7549903Y-12176335D01*
X7549903Y-12176335D02*
X7559427Y-12166812D01*
X7559427Y-12166812D02*
X7578475Y-12157288D01*
X7578475Y-12157288D02*
X7607046Y-12157288D01*
X7607046Y-12157288D02*
X7626094Y-12166812D01*
X7626094Y-12166812D02*
X7635617Y-12176335D01*
X7635617Y-12176335D02*
X7645141Y-12195383D01*
X7645141Y-12195383D02*
X7645141Y-12252526D01*
X7645141Y-12252526D02*
X7635617Y-12271574D01*
X7635617Y-12271574D02*
X7626094Y-12281097D01*
X7626094Y-12281097D02*
X7607046Y-12290621D01*
X7607046Y-12290621D02*
X7578475Y-12290621D01*
X7759427Y-12290621D02*
X7740379Y-12281097D01*
X7740379Y-12281097D02*
X7730856Y-12262050D01*
X7730856Y-12262050D02*
X7730856Y-12090621D01*
X7911808Y-12281097D02*
X7892760Y-12290621D01*
X7892760Y-12290621D02*
X7854665Y-12290621D01*
X7854665Y-12290621D02*
X7835617Y-12281097D01*
X7835617Y-12281097D02*
X7826094Y-12262050D01*
X7826094Y-12262050D02*
X7826094Y-12185859D01*
X7826094Y-12185859D02*
X7835617Y-12166812D01*
X7835617Y-12166812D02*
X7854665Y-12157288D01*
X7854665Y-12157288D02*
X7892760Y-12157288D01*
X7892760Y-12157288D02*
X7911808Y-12166812D01*
X7911808Y-12166812D02*
X7921332Y-12185859D01*
X7921332Y-12185859D02*
X7921332Y-12204907D01*
X7921332Y-12204907D02*
X7826094Y-12223955D01*
X7997522Y-12281097D02*
X8016570Y-12290621D01*
X8016570Y-12290621D02*
X8054665Y-12290621D01*
X8054665Y-12290621D02*
X8073713Y-12281097D01*
X8073713Y-12281097D02*
X8083237Y-12262050D01*
X8083237Y-12262050D02*
X8083237Y-12252526D01*
X8083237Y-12252526D02*
X8073713Y-12233478D01*
X8073713Y-12233478D02*
X8054665Y-12223955D01*
X8054665Y-12223955D02*
X8026094Y-12223955D01*
X8026094Y-12223955D02*
X8007046Y-12214431D01*
X8007046Y-12214431D02*
X7997522Y-12195383D01*
X7997522Y-12195383D02*
X7997522Y-12185859D01*
X7997522Y-12185859D02*
X8007046Y-12166812D01*
X8007046Y-12166812D02*
X8026094Y-12157288D01*
X8026094Y-12157288D02*
X8054665Y-12157288D01*
X8054665Y-12157288D02*
X8073713Y-12166812D01*
X8149903Y-12366812D02*
X8159427Y-12357288D01*
X8159427Y-12357288D02*
X8178475Y-12328716D01*
X8178475Y-12328716D02*
X8187998Y-12309669D01*
X8187998Y-12309669D02*
X8197522Y-12281097D01*
X8197522Y-12281097D02*
X8207046Y-12233478D01*
X8207046Y-12233478D02*
X8207046Y-12195383D01*
X8207046Y-12195383D02*
X8197522Y-12147764D01*
X8197522Y-12147764D02*
X8187998Y-12119193D01*
X8187998Y-12119193D02*
X8178475Y-12100145D01*
X8178475Y-12100145D02*
X8159427Y-12071574D01*
X8159427Y-12071574D02*
X8149903Y-12062050D01*
X8511808Y-12366812D02*
X8502284Y-12357288D01*
X8502284Y-12357288D02*
X8483237Y-12328716D01*
X8483237Y-12328716D02*
X8473713Y-12309669D01*
X8473713Y-12309669D02*
X8464189Y-12281097D01*
X8464189Y-12281097D02*
X8454665Y-12233478D01*
X8454665Y-12233478D02*
X8454665Y-12195383D01*
X8454665Y-12195383D02*
X8464189Y-12147764D01*
X8464189Y-12147764D02*
X8473713Y-12119193D01*
X8473713Y-12119193D02*
X8483237Y-12100145D01*
X8483237Y-12100145D02*
X8502284Y-12071574D01*
X8502284Y-12071574D02*
X8511808Y-12062050D01*
X8587999Y-12157288D02*
X8587999Y-12290621D01*
X8587999Y-12176335D02*
X8597522Y-12166812D01*
X8597522Y-12166812D02*
X8616570Y-12157288D01*
X8616570Y-12157288D02*
X8645141Y-12157288D01*
X8645141Y-12157288D02*
X8664189Y-12166812D01*
X8664189Y-12166812D02*
X8673713Y-12185859D01*
X8673713Y-12185859D02*
X8673713Y-12290621D01*
X8797522Y-12290621D02*
X8778475Y-12281097D01*
X8778475Y-12281097D02*
X8768951Y-12271574D01*
X8768951Y-12271574D02*
X8759427Y-12252526D01*
X8759427Y-12252526D02*
X8759427Y-12195383D01*
X8759427Y-12195383D02*
X8768951Y-12176335D01*
X8768951Y-12176335D02*
X8778475Y-12166812D01*
X8778475Y-12166812D02*
X8797522Y-12157288D01*
X8797522Y-12157288D02*
X8826094Y-12157288D01*
X8826094Y-12157288D02*
X8845141Y-12166812D01*
X8845141Y-12166812D02*
X8854665Y-12176335D01*
X8854665Y-12176335D02*
X8864189Y-12195383D01*
X8864189Y-12195383D02*
X8864189Y-12252526D01*
X8864189Y-12252526D02*
X8854665Y-12271574D01*
X8854665Y-12271574D02*
X8845141Y-12281097D01*
X8845141Y-12281097D02*
X8826094Y-12290621D01*
X8826094Y-12290621D02*
X8797522Y-12290621D01*
X8921332Y-12157288D02*
X8997522Y-12157288D01*
X8949903Y-12090621D02*
X8949903Y-12262050D01*
X8949903Y-12262050D02*
X8959427Y-12281097D01*
X8959427Y-12281097D02*
X8978475Y-12290621D01*
X8978475Y-12290621D02*
X8997522Y-12290621D01*
X9216570Y-12157288D02*
X9216570Y-12357288D01*
X9216570Y-12166812D02*
X9235618Y-12157288D01*
X9235618Y-12157288D02*
X9273713Y-12157288D01*
X9273713Y-12157288D02*
X9292761Y-12166812D01*
X9292761Y-12166812D02*
X9302284Y-12176335D01*
X9302284Y-12176335D02*
X9311808Y-12195383D01*
X9311808Y-12195383D02*
X9311808Y-12252526D01*
X9311808Y-12252526D02*
X9302284Y-12271574D01*
X9302284Y-12271574D02*
X9292761Y-12281097D01*
X9292761Y-12281097D02*
X9273713Y-12290621D01*
X9273713Y-12290621D02*
X9235618Y-12290621D01*
X9235618Y-12290621D02*
X9216570Y-12281097D01*
X9426094Y-12290621D02*
X9407046Y-12281097D01*
X9407046Y-12281097D02*
X9397522Y-12262050D01*
X9397522Y-12262050D02*
X9397522Y-12090621D01*
X9587999Y-12290621D02*
X9587999Y-12185859D01*
X9587999Y-12185859D02*
X9578475Y-12166812D01*
X9578475Y-12166812D02*
X9559427Y-12157288D01*
X9559427Y-12157288D02*
X9521332Y-12157288D01*
X9521332Y-12157288D02*
X9502284Y-12166812D01*
X9587999Y-12281097D02*
X9568951Y-12290621D01*
X9568951Y-12290621D02*
X9521332Y-12290621D01*
X9521332Y-12290621D02*
X9502284Y-12281097D01*
X9502284Y-12281097D02*
X9492761Y-12262050D01*
X9492761Y-12262050D02*
X9492761Y-12243002D01*
X9492761Y-12243002D02*
X9502284Y-12223955D01*
X9502284Y-12223955D02*
X9521332Y-12214431D01*
X9521332Y-12214431D02*
X9568951Y-12214431D01*
X9568951Y-12214431D02*
X9587999Y-12204907D01*
X9654665Y-12157288D02*
X9730856Y-12157288D01*
X9683237Y-12090621D02*
X9683237Y-12262050D01*
X9683237Y-12262050D02*
X9692761Y-12281097D01*
X9692761Y-12281097D02*
X9711808Y-12290621D01*
X9711808Y-12290621D02*
X9730856Y-12290621D01*
X9873713Y-12281097D02*
X9854665Y-12290621D01*
X9854665Y-12290621D02*
X9816570Y-12290621D01*
X9816570Y-12290621D02*
X9797522Y-12281097D01*
X9797522Y-12281097D02*
X9787999Y-12262050D01*
X9787999Y-12262050D02*
X9787999Y-12185859D01*
X9787999Y-12185859D02*
X9797522Y-12166812D01*
X9797522Y-12166812D02*
X9816570Y-12157288D01*
X9816570Y-12157288D02*
X9854665Y-12157288D01*
X9854665Y-12157288D02*
X9873713Y-12166812D01*
X9873713Y-12166812D02*
X9883237Y-12185859D01*
X9883237Y-12185859D02*
X9883237Y-12204907D01*
X9883237Y-12204907D02*
X9787999Y-12223955D01*
X10054665Y-12290621D02*
X10054665Y-12090621D01*
X10054665Y-12281097D02*
X10035618Y-12290621D01*
X10035618Y-12290621D02*
X9997522Y-12290621D01*
X9997522Y-12290621D02*
X9978475Y-12281097D01*
X9978475Y-12281097D02*
X9968951Y-12271574D01*
X9968951Y-12271574D02*
X9959427Y-12252526D01*
X9959427Y-12252526D02*
X9959427Y-12195383D01*
X9959427Y-12195383D02*
X9968951Y-12176335D01*
X9968951Y-12176335D02*
X9978475Y-12166812D01*
X9978475Y-12166812D02*
X9997522Y-12157288D01*
X9997522Y-12157288D02*
X10035618Y-12157288D01*
X10035618Y-12157288D02*
X10054665Y-12166812D01*
X10130856Y-12366812D02*
X10140380Y-12357288D01*
X10140380Y-12357288D02*
X10159427Y-12328716D01*
X10159427Y-12328716D02*
X10168951Y-12309669D01*
X10168951Y-12309669D02*
X10178475Y-12281097D01*
X10178475Y-12281097D02*
X10187999Y-12233478D01*
X10187999Y-12233478D02*
X10187999Y-12195383D01*
X10187999Y-12195383D02*
X10178475Y-12147764D01*
X10178475Y-12147764D02*
X10168951Y-12119193D01*
X10168951Y-12119193D02*
X10159427Y-12100145D01*
X10159427Y-12100145D02*
X10140380Y-12071574D01*
X10140380Y-12071574D02*
X10130856Y-12062050D01*
D13*
X3374840Y-12469137D02*
G75*
G03*
X3194840Y-12469137I-90000J0D01*
G01*
X3194840Y-12469137D02*
G75*
G03*
X3374840Y-12469137I90000J0D01*
G01*
D11*
X3740379Y-12560621D02*
X3626093Y-12560621D01*
X3683236Y-12560621D02*
X3683236Y-12360621D01*
X3683236Y-12360621D02*
X3664188Y-12389193D01*
X3664188Y-12389193D02*
X3645141Y-12408240D01*
X3645141Y-12408240D02*
X3626093Y-12417764D01*
X3826093Y-12541574D02*
X3835617Y-12551097D01*
X3835617Y-12551097D02*
X3826093Y-12560621D01*
X3826093Y-12560621D02*
X3816569Y-12551097D01*
X3816569Y-12551097D02*
X3826093Y-12541574D01*
X3826093Y-12541574D02*
X3826093Y-12560621D01*
X3949903Y-12446335D02*
X3930855Y-12436812D01*
X3930855Y-12436812D02*
X3921331Y-12427288D01*
X3921331Y-12427288D02*
X3911808Y-12408240D01*
X3911808Y-12408240D02*
X3911808Y-12398716D01*
X3911808Y-12398716D02*
X3921331Y-12379669D01*
X3921331Y-12379669D02*
X3930855Y-12370145D01*
X3930855Y-12370145D02*
X3949903Y-12360621D01*
X3949903Y-12360621D02*
X3987998Y-12360621D01*
X3987998Y-12360621D02*
X4007046Y-12370145D01*
X4007046Y-12370145D02*
X4016569Y-12379669D01*
X4016569Y-12379669D02*
X4026093Y-12398716D01*
X4026093Y-12398716D02*
X4026093Y-12408240D01*
X4026093Y-12408240D02*
X4016569Y-12427288D01*
X4016569Y-12427288D02*
X4007046Y-12436812D01*
X4007046Y-12436812D02*
X3987998Y-12446335D01*
X3987998Y-12446335D02*
X3949903Y-12446335D01*
X3949903Y-12446335D02*
X3930855Y-12455859D01*
X3930855Y-12455859D02*
X3921331Y-12465383D01*
X3921331Y-12465383D02*
X3911808Y-12484431D01*
X3911808Y-12484431D02*
X3911808Y-12522526D01*
X3911808Y-12522526D02*
X3921331Y-12541574D01*
X3921331Y-12541574D02*
X3930855Y-12551097D01*
X3930855Y-12551097D02*
X3949903Y-12560621D01*
X3949903Y-12560621D02*
X3987998Y-12560621D01*
X3987998Y-12560621D02*
X4007046Y-12551097D01*
X4007046Y-12551097D02*
X4016569Y-12541574D01*
X4016569Y-12541574D02*
X4026093Y-12522526D01*
X4026093Y-12522526D02*
X4026093Y-12484431D01*
X4026093Y-12484431D02*
X4016569Y-12465383D01*
X4016569Y-12465383D02*
X4007046Y-12455859D01*
X4007046Y-12455859D02*
X3987998Y-12446335D01*
X4149903Y-12360621D02*
X4168950Y-12360621D01*
X4168950Y-12360621D02*
X4187998Y-12370145D01*
X4187998Y-12370145D02*
X4197522Y-12379669D01*
X4197522Y-12379669D02*
X4207046Y-12398716D01*
X4207046Y-12398716D02*
X4216570Y-12436812D01*
X4216570Y-12436812D02*
X4216570Y-12484431D01*
X4216570Y-12484431D02*
X4207046Y-12522526D01*
X4207046Y-12522526D02*
X4197522Y-12541574D01*
X4197522Y-12541574D02*
X4187998Y-12551097D01*
X4187998Y-12551097D02*
X4168950Y-12560621D01*
X4168950Y-12560621D02*
X4149903Y-12560621D01*
X4149903Y-12560621D02*
X4130855Y-12551097D01*
X4130855Y-12551097D02*
X4121331Y-12541574D01*
X4121331Y-12541574D02*
X4111808Y-12522526D01*
X4111808Y-12522526D02*
X4102284Y-12484431D01*
X4102284Y-12484431D02*
X4102284Y-12436812D01*
X4102284Y-12436812D02*
X4111808Y-12398716D01*
X4111808Y-12398716D02*
X4121331Y-12379669D01*
X4121331Y-12379669D02*
X4130855Y-12370145D01*
X4130855Y-12370145D02*
X4149903Y-12360621D01*
X4340379Y-12360621D02*
X4359427Y-12360621D01*
X4359427Y-12360621D02*
X4378474Y-12370145D01*
X4378474Y-12370145D02*
X4387998Y-12379669D01*
X4387998Y-12379669D02*
X4397522Y-12398716D01*
X4397522Y-12398716D02*
X4407046Y-12436812D01*
X4407046Y-12436812D02*
X4407046Y-12484431D01*
X4407046Y-12484431D02*
X4397522Y-12522526D01*
X4397522Y-12522526D02*
X4387998Y-12541574D01*
X4387998Y-12541574D02*
X4378474Y-12551097D01*
X4378474Y-12551097D02*
X4359427Y-12560621D01*
X4359427Y-12560621D02*
X4340379Y-12560621D01*
X4340379Y-12560621D02*
X4321331Y-12551097D01*
X4321331Y-12551097D02*
X4311808Y-12541574D01*
X4311808Y-12541574D02*
X4302284Y-12522526D01*
X4302284Y-12522526D02*
X4292760Y-12484431D01*
X4292760Y-12484431D02*
X4292760Y-12436812D01*
X4292760Y-12436812D02*
X4302284Y-12398716D01*
X4302284Y-12398716D02*
X4311808Y-12379669D01*
X4311808Y-12379669D02*
X4321331Y-12370145D01*
X4321331Y-12370145D02*
X4340379Y-12360621D01*
X4492760Y-12560621D02*
X4492760Y-12427288D01*
X4492760Y-12446335D02*
X4502284Y-12436812D01*
X4502284Y-12436812D02*
X4521331Y-12427288D01*
X4521331Y-12427288D02*
X4549903Y-12427288D01*
X4549903Y-12427288D02*
X4568951Y-12436812D01*
X4568951Y-12436812D02*
X4578474Y-12455859D01*
X4578474Y-12455859D02*
X4578474Y-12560621D01*
X4578474Y-12455859D02*
X4587998Y-12436812D01*
X4587998Y-12436812D02*
X4607046Y-12427288D01*
X4607046Y-12427288D02*
X4635617Y-12427288D01*
X4635617Y-12427288D02*
X4654665Y-12436812D01*
X4654665Y-12436812D02*
X4664189Y-12455859D01*
X4664189Y-12455859D02*
X4664189Y-12560621D01*
X4759427Y-12560621D02*
X4759427Y-12427288D01*
X4759427Y-12446335D02*
X4768951Y-12436812D01*
X4768951Y-12436812D02*
X4787998Y-12427288D01*
X4787998Y-12427288D02*
X4816570Y-12427288D01*
X4816570Y-12427288D02*
X4835617Y-12436812D01*
X4835617Y-12436812D02*
X4845141Y-12455859D01*
X4845141Y-12455859D02*
X4845141Y-12560621D01*
X4845141Y-12455859D02*
X4854665Y-12436812D01*
X4854665Y-12436812D02*
X4873712Y-12427288D01*
X4873712Y-12427288D02*
X4902284Y-12427288D01*
X4902284Y-12427288D02*
X4921332Y-12436812D01*
X4921332Y-12436812D02*
X4930855Y-12455859D01*
X4930855Y-12455859D02*
X4930855Y-12560621D01*
X5321332Y-12351097D02*
X5149903Y-12608240D01*
X5578474Y-12360621D02*
X5597522Y-12360621D01*
X5597522Y-12360621D02*
X5616570Y-12370145D01*
X5616570Y-12370145D02*
X5626093Y-12379669D01*
X5626093Y-12379669D02*
X5635617Y-12398716D01*
X5635617Y-12398716D02*
X5645141Y-12436812D01*
X5645141Y-12436812D02*
X5645141Y-12484431D01*
X5645141Y-12484431D02*
X5635617Y-12522526D01*
X5635617Y-12522526D02*
X5626093Y-12541574D01*
X5626093Y-12541574D02*
X5616570Y-12551097D01*
X5616570Y-12551097D02*
X5597522Y-12560621D01*
X5597522Y-12560621D02*
X5578474Y-12560621D01*
X5578474Y-12560621D02*
X5559427Y-12551097D01*
X5559427Y-12551097D02*
X5549903Y-12541574D01*
X5549903Y-12541574D02*
X5540379Y-12522526D01*
X5540379Y-12522526D02*
X5530855Y-12484431D01*
X5530855Y-12484431D02*
X5530855Y-12436812D01*
X5530855Y-12436812D02*
X5540379Y-12398716D01*
X5540379Y-12398716D02*
X5549903Y-12379669D01*
X5549903Y-12379669D02*
X5559427Y-12370145D01*
X5559427Y-12370145D02*
X5578474Y-12360621D01*
X5730855Y-12541574D02*
X5740379Y-12551097D01*
X5740379Y-12551097D02*
X5730855Y-12560621D01*
X5730855Y-12560621D02*
X5721332Y-12551097D01*
X5721332Y-12551097D02*
X5730855Y-12541574D01*
X5730855Y-12541574D02*
X5730855Y-12560621D01*
X5864189Y-12360621D02*
X5883236Y-12360621D01*
X5883236Y-12360621D02*
X5902284Y-12370145D01*
X5902284Y-12370145D02*
X5911808Y-12379669D01*
X5911808Y-12379669D02*
X5921332Y-12398716D01*
X5921332Y-12398716D02*
X5930855Y-12436812D01*
X5930855Y-12436812D02*
X5930855Y-12484431D01*
X5930855Y-12484431D02*
X5921332Y-12522526D01*
X5921332Y-12522526D02*
X5911808Y-12541574D01*
X5911808Y-12541574D02*
X5902284Y-12551097D01*
X5902284Y-12551097D02*
X5883236Y-12560621D01*
X5883236Y-12560621D02*
X5864189Y-12560621D01*
X5864189Y-12560621D02*
X5845141Y-12551097D01*
X5845141Y-12551097D02*
X5835617Y-12541574D01*
X5835617Y-12541574D02*
X5826093Y-12522526D01*
X5826093Y-12522526D02*
X5816570Y-12484431D01*
X5816570Y-12484431D02*
X5816570Y-12436812D01*
X5816570Y-12436812D02*
X5826093Y-12398716D01*
X5826093Y-12398716D02*
X5835617Y-12379669D01*
X5835617Y-12379669D02*
X5845141Y-12370145D01*
X5845141Y-12370145D02*
X5864189Y-12360621D01*
X5997522Y-12360621D02*
X6130855Y-12360621D01*
X6130855Y-12360621D02*
X6045141Y-12560621D01*
X6245141Y-12360621D02*
X6264189Y-12360621D01*
X6264189Y-12360621D02*
X6283236Y-12370145D01*
X6283236Y-12370145D02*
X6292760Y-12379669D01*
X6292760Y-12379669D02*
X6302284Y-12398716D01*
X6302284Y-12398716D02*
X6311808Y-12436812D01*
X6311808Y-12436812D02*
X6311808Y-12484431D01*
X6311808Y-12484431D02*
X6302284Y-12522526D01*
X6302284Y-12522526D02*
X6292760Y-12541574D01*
X6292760Y-12541574D02*
X6283236Y-12551097D01*
X6283236Y-12551097D02*
X6264189Y-12560621D01*
X6264189Y-12560621D02*
X6245141Y-12560621D01*
X6245141Y-12560621D02*
X6226093Y-12551097D01*
X6226093Y-12551097D02*
X6216570Y-12541574D01*
X6216570Y-12541574D02*
X6207046Y-12522526D01*
X6207046Y-12522526D02*
X6197522Y-12484431D01*
X6197522Y-12484431D02*
X6197522Y-12436812D01*
X6197522Y-12436812D02*
X6207046Y-12398716D01*
X6207046Y-12398716D02*
X6216570Y-12379669D01*
X6216570Y-12379669D02*
X6226093Y-12370145D01*
X6226093Y-12370145D02*
X6245141Y-12360621D01*
X6407046Y-12560621D02*
X6445141Y-12560621D01*
X6445141Y-12560621D02*
X6464189Y-12551097D01*
X6464189Y-12551097D02*
X6473713Y-12541574D01*
X6473713Y-12541574D02*
X6492760Y-12513002D01*
X6492760Y-12513002D02*
X6502284Y-12474907D01*
X6502284Y-12474907D02*
X6502284Y-12398716D01*
X6502284Y-12398716D02*
X6492760Y-12379669D01*
X6492760Y-12379669D02*
X6483236Y-12370145D01*
X6483236Y-12370145D02*
X6464189Y-12360621D01*
X6464189Y-12360621D02*
X6426093Y-12360621D01*
X6426093Y-12360621D02*
X6407046Y-12370145D01*
X6407046Y-12370145D02*
X6397522Y-12379669D01*
X6397522Y-12379669D02*
X6387998Y-12398716D01*
X6387998Y-12398716D02*
X6387998Y-12446335D01*
X6387998Y-12446335D02*
X6397522Y-12465383D01*
X6397522Y-12465383D02*
X6407046Y-12474907D01*
X6407046Y-12474907D02*
X6426093Y-12484431D01*
X6426093Y-12484431D02*
X6464189Y-12484431D01*
X6464189Y-12484431D02*
X6483236Y-12474907D01*
X6483236Y-12474907D02*
X6492760Y-12465383D01*
X6492760Y-12465383D02*
X6502284Y-12446335D01*
X6578474Y-12360621D02*
X6578474Y-12398716D01*
X6654665Y-12360621D02*
X6654665Y-12398716D01*
X6949903Y-12636812D02*
X6940379Y-12627288D01*
X6940379Y-12627288D02*
X6921332Y-12598716D01*
X6921332Y-12598716D02*
X6911808Y-12579669D01*
X6911808Y-12579669D02*
X6902284Y-12551097D01*
X6902284Y-12551097D02*
X6892760Y-12503478D01*
X6892760Y-12503478D02*
X6892760Y-12465383D01*
X6892760Y-12465383D02*
X6902284Y-12417764D01*
X6902284Y-12417764D02*
X6911808Y-12389193D01*
X6911808Y-12389193D02*
X6921332Y-12370145D01*
X6921332Y-12370145D02*
X6940379Y-12341574D01*
X6940379Y-12341574D02*
X6949903Y-12332050D01*
X7111808Y-12427288D02*
X7111808Y-12560621D01*
X7064189Y-12351097D02*
X7016570Y-12493955D01*
X7016570Y-12493955D02*
X7140379Y-12493955D01*
X7368951Y-12560621D02*
X7368951Y-12360621D01*
X7454665Y-12560621D02*
X7454665Y-12455859D01*
X7454665Y-12455859D02*
X7445141Y-12436812D01*
X7445141Y-12436812D02*
X7426094Y-12427288D01*
X7426094Y-12427288D02*
X7397522Y-12427288D01*
X7397522Y-12427288D02*
X7378475Y-12436812D01*
X7378475Y-12436812D02*
X7368951Y-12446335D01*
X7578475Y-12560621D02*
X7559427Y-12551097D01*
X7559427Y-12551097D02*
X7549903Y-12541574D01*
X7549903Y-12541574D02*
X7540379Y-12522526D01*
X7540379Y-12522526D02*
X7540379Y-12465383D01*
X7540379Y-12465383D02*
X7549903Y-12446335D01*
X7549903Y-12446335D02*
X7559427Y-12436812D01*
X7559427Y-12436812D02*
X7578475Y-12427288D01*
X7578475Y-12427288D02*
X7607046Y-12427288D01*
X7607046Y-12427288D02*
X7626094Y-12436812D01*
X7626094Y-12436812D02*
X7635617Y-12446335D01*
X7635617Y-12446335D02*
X7645141Y-12465383D01*
X7645141Y-12465383D02*
X7645141Y-12522526D01*
X7645141Y-12522526D02*
X7635617Y-12541574D01*
X7635617Y-12541574D02*
X7626094Y-12551097D01*
X7626094Y-12551097D02*
X7607046Y-12560621D01*
X7607046Y-12560621D02*
X7578475Y-12560621D01*
X7759427Y-12560621D02*
X7740379Y-12551097D01*
X7740379Y-12551097D02*
X7730856Y-12532050D01*
X7730856Y-12532050D02*
X7730856Y-12360621D01*
X7911808Y-12551097D02*
X7892760Y-12560621D01*
X7892760Y-12560621D02*
X7854665Y-12560621D01*
X7854665Y-12560621D02*
X7835617Y-12551097D01*
X7835617Y-12551097D02*
X7826094Y-12532050D01*
X7826094Y-12532050D02*
X7826094Y-12455859D01*
X7826094Y-12455859D02*
X7835617Y-12436812D01*
X7835617Y-12436812D02*
X7854665Y-12427288D01*
X7854665Y-12427288D02*
X7892760Y-12427288D01*
X7892760Y-12427288D02*
X7911808Y-12436812D01*
X7911808Y-12436812D02*
X7921332Y-12455859D01*
X7921332Y-12455859D02*
X7921332Y-12474907D01*
X7921332Y-12474907D02*
X7826094Y-12493955D01*
X7997522Y-12551097D02*
X8016570Y-12560621D01*
X8016570Y-12560621D02*
X8054665Y-12560621D01*
X8054665Y-12560621D02*
X8073713Y-12551097D01*
X8073713Y-12551097D02*
X8083237Y-12532050D01*
X8083237Y-12532050D02*
X8083237Y-12522526D01*
X8083237Y-12522526D02*
X8073713Y-12503478D01*
X8073713Y-12503478D02*
X8054665Y-12493955D01*
X8054665Y-12493955D02*
X8026094Y-12493955D01*
X8026094Y-12493955D02*
X8007046Y-12484431D01*
X8007046Y-12484431D02*
X7997522Y-12465383D01*
X7997522Y-12465383D02*
X7997522Y-12455859D01*
X7997522Y-12455859D02*
X8007046Y-12436812D01*
X8007046Y-12436812D02*
X8026094Y-12427288D01*
X8026094Y-12427288D02*
X8054665Y-12427288D01*
X8054665Y-12427288D02*
X8073713Y-12436812D01*
X8149903Y-12636812D02*
X8159427Y-12627288D01*
X8159427Y-12627288D02*
X8178475Y-12598716D01*
X8178475Y-12598716D02*
X8187998Y-12579669D01*
X8187998Y-12579669D02*
X8197522Y-12551097D01*
X8197522Y-12551097D02*
X8207046Y-12503478D01*
X8207046Y-12503478D02*
X8207046Y-12465383D01*
X8207046Y-12465383D02*
X8197522Y-12417764D01*
X8197522Y-12417764D02*
X8187998Y-12389193D01*
X8187998Y-12389193D02*
X8178475Y-12370145D01*
X8178475Y-12370145D02*
X8159427Y-12341574D01*
X8159427Y-12341574D02*
X8149903Y-12332050D01*
X8511808Y-12636812D02*
X8502284Y-12627288D01*
X8502284Y-12627288D02*
X8483237Y-12598716D01*
X8483237Y-12598716D02*
X8473713Y-12579669D01*
X8473713Y-12579669D02*
X8464189Y-12551097D01*
X8464189Y-12551097D02*
X8454665Y-12503478D01*
X8454665Y-12503478D02*
X8454665Y-12465383D01*
X8454665Y-12465383D02*
X8464189Y-12417764D01*
X8464189Y-12417764D02*
X8473713Y-12389193D01*
X8473713Y-12389193D02*
X8483237Y-12370145D01*
X8483237Y-12370145D02*
X8502284Y-12341574D01*
X8502284Y-12341574D02*
X8511808Y-12332050D01*
X8587999Y-12427288D02*
X8587999Y-12560621D01*
X8587999Y-12446335D02*
X8597522Y-12436812D01*
X8597522Y-12436812D02*
X8616570Y-12427288D01*
X8616570Y-12427288D02*
X8645141Y-12427288D01*
X8645141Y-12427288D02*
X8664189Y-12436812D01*
X8664189Y-12436812D02*
X8673713Y-12455859D01*
X8673713Y-12455859D02*
X8673713Y-12560621D01*
X8797522Y-12560621D02*
X8778475Y-12551097D01*
X8778475Y-12551097D02*
X8768951Y-12541574D01*
X8768951Y-12541574D02*
X8759427Y-12522526D01*
X8759427Y-12522526D02*
X8759427Y-12465383D01*
X8759427Y-12465383D02*
X8768951Y-12446335D01*
X8768951Y-12446335D02*
X8778475Y-12436812D01*
X8778475Y-12436812D02*
X8797522Y-12427288D01*
X8797522Y-12427288D02*
X8826094Y-12427288D01*
X8826094Y-12427288D02*
X8845141Y-12436812D01*
X8845141Y-12436812D02*
X8854665Y-12446335D01*
X8854665Y-12446335D02*
X8864189Y-12465383D01*
X8864189Y-12465383D02*
X8864189Y-12522526D01*
X8864189Y-12522526D02*
X8854665Y-12541574D01*
X8854665Y-12541574D02*
X8845141Y-12551097D01*
X8845141Y-12551097D02*
X8826094Y-12560621D01*
X8826094Y-12560621D02*
X8797522Y-12560621D01*
X8921332Y-12427288D02*
X8997522Y-12427288D01*
X8949903Y-12360621D02*
X8949903Y-12532050D01*
X8949903Y-12532050D02*
X8959427Y-12551097D01*
X8959427Y-12551097D02*
X8978475Y-12560621D01*
X8978475Y-12560621D02*
X8997522Y-12560621D01*
X9216570Y-12427288D02*
X9216570Y-12627288D01*
X9216570Y-12436812D02*
X9235618Y-12427288D01*
X9235618Y-12427288D02*
X9273713Y-12427288D01*
X9273713Y-12427288D02*
X9292761Y-12436812D01*
X9292761Y-12436812D02*
X9302284Y-12446335D01*
X9302284Y-12446335D02*
X9311808Y-12465383D01*
X9311808Y-12465383D02*
X9311808Y-12522526D01*
X9311808Y-12522526D02*
X9302284Y-12541574D01*
X9302284Y-12541574D02*
X9292761Y-12551097D01*
X9292761Y-12551097D02*
X9273713Y-12560621D01*
X9273713Y-12560621D02*
X9235618Y-12560621D01*
X9235618Y-12560621D02*
X9216570Y-12551097D01*
X9426094Y-12560621D02*
X9407046Y-12551097D01*
X9407046Y-12551097D02*
X9397522Y-12532050D01*
X9397522Y-12532050D02*
X9397522Y-12360621D01*
X9587999Y-12560621D02*
X9587999Y-12455859D01*
X9587999Y-12455859D02*
X9578475Y-12436812D01*
X9578475Y-12436812D02*
X9559427Y-12427288D01*
X9559427Y-12427288D02*
X9521332Y-12427288D01*
X9521332Y-12427288D02*
X9502284Y-12436812D01*
X9587999Y-12551097D02*
X9568951Y-12560621D01*
X9568951Y-12560621D02*
X9521332Y-12560621D01*
X9521332Y-12560621D02*
X9502284Y-12551097D01*
X9502284Y-12551097D02*
X9492761Y-12532050D01*
X9492761Y-12532050D02*
X9492761Y-12513002D01*
X9492761Y-12513002D02*
X9502284Y-12493955D01*
X9502284Y-12493955D02*
X9521332Y-12484431D01*
X9521332Y-12484431D02*
X9568951Y-12484431D01*
X9568951Y-12484431D02*
X9587999Y-12474907D01*
X9654665Y-12427288D02*
X9730856Y-12427288D01*
X9683237Y-12360621D02*
X9683237Y-12532050D01*
X9683237Y-12532050D02*
X9692761Y-12551097D01*
X9692761Y-12551097D02*
X9711808Y-12560621D01*
X9711808Y-12560621D02*
X9730856Y-12560621D01*
X9873713Y-12551097D02*
X9854665Y-12560621D01*
X9854665Y-12560621D02*
X9816570Y-12560621D01*
X9816570Y-12560621D02*
X9797522Y-12551097D01*
X9797522Y-12551097D02*
X9787999Y-12532050D01*
X9787999Y-12532050D02*
X9787999Y-12455859D01*
X9787999Y-12455859D02*
X9797522Y-12436812D01*
X9797522Y-12436812D02*
X9816570Y-12427288D01*
X9816570Y-12427288D02*
X9854665Y-12427288D01*
X9854665Y-12427288D02*
X9873713Y-12436812D01*
X9873713Y-12436812D02*
X9883237Y-12455859D01*
X9883237Y-12455859D02*
X9883237Y-12474907D01*
X9883237Y-12474907D02*
X9787999Y-12493955D01*
X10054665Y-12560621D02*
X10054665Y-12360621D01*
X10054665Y-12551097D02*
X10035618Y-12560621D01*
X10035618Y-12560621D02*
X9997522Y-12560621D01*
X9997522Y-12560621D02*
X9978475Y-12551097D01*
X9978475Y-12551097D02*
X9968951Y-12541574D01*
X9968951Y-12541574D02*
X9959427Y-12522526D01*
X9959427Y-12522526D02*
X9959427Y-12465383D01*
X9959427Y-12465383D02*
X9968951Y-12446335D01*
X9968951Y-12446335D02*
X9978475Y-12436812D01*
X9978475Y-12436812D02*
X9997522Y-12427288D01*
X9997522Y-12427288D02*
X10035618Y-12427288D01*
X10035618Y-12427288D02*
X10054665Y-12436812D01*
X10130856Y-12636812D02*
X10140380Y-12627288D01*
X10140380Y-12627288D02*
X10159427Y-12598716D01*
X10159427Y-12598716D02*
X10168951Y-12579669D01*
X10168951Y-12579669D02*
X10178475Y-12551097D01*
X10178475Y-12551097D02*
X10187999Y-12503478D01*
X10187999Y-12503478D02*
X10187999Y-12465383D01*
X10187999Y-12465383D02*
X10178475Y-12417764D01*
X10178475Y-12417764D02*
X10168951Y-12389193D01*
X10168951Y-12389193D02*
X10159427Y-12370145D01*
X10159427Y-12370145D02*
X10140380Y-12341574D01*
X10140380Y-12341574D02*
X10130856Y-12332050D01*
M02*
